<svg xmlns="http://www.w3.org/2000/svg" width="1055.06" height="1047.32" viewBox="0 0 1055.06 1047.32"><path d="M541.12,1053a47.8,47.8,0,0,1-47.8-47.8V64.4a47.81,47.81,0,0,1,95.61,0v940.84A47.8,47.8,0,0,1,541.12,1053Z" transform="translate(-12.62 -16.6)"/><path d="M60.43,534.84" transform="translate(-12.62 -16.6)" fill="none" stroke="#000" stroke-linecap="round" stroke-linejoin="round" stroke-width="8"/><path d="M541.69,1063.91h0a47.85,47.85,0,0,1-33.81-14L26.62,568.64A47.81,47.81,0,0,1,94.24,501L541.69,948.49,986.07,504.11a47.81,47.81,0,0,1,67.61,67.62L575.5,1049.91A47.85,47.85,0,0,1,541.69,1063.91Z" transform="translate(-12.62 -16.6)"/></svg>