<svg xmlns="http://www.w3.org/2000/svg" width="995.49" height="1011.62" viewBox="0 0 995.49 1011.62"><text transform="translate(69.72 423.66) rotate(-75.5)" font-size="82.04" font-family="Sora-Medium, Sora" font-weight="500">S</text><text transform="translate(83.43 371.09) rotate(-68.75)" font-size="82.04" font-family="Sora-Medium, Sora" font-weight="500">E</text><text transform="translate(100.59 326.74) rotate(-62.45)" font-size="82.04" font-family="Sora-Medium, Sora" font-weight="500">E</text><text transform="translate(123.26 284.44) rotate(-58.16)" font-size="82.04" font-family="Sora-Medium, Sora" font-weight="500"> </text><text transform="translate(130.78 269.27) rotate(-52.11)" font-size="82.04" font-family="Sora-Medium, Sora" font-weight="500">M</text><text transform="matrix(0.72, -0.69, 0.69, 0.72, 177.31, 210.62)" font-size="82.04" font-family="Sora-Medium, Sora" font-weight="500">Y</text><text transform="matrix(0.77, -0.63, 0.63, 0.77, 215.65, 174.74)" font-size="82.04" font-family="Sora-Medium, Sora" font-weight="500"> </text><text transform="matrix(0.83, -0.56, 0.56, 0.83, 228.09, 163.11)" font-size="82.04" font-family="Sora-Medium, Sora" font-weight="500">D</text><text transform="translate(280.44 128.26) rotate(-26.74)" font-size="82.04" font-family="Sora-Medium, Sora" font-weight="500">E</text><text transform="translate(322.19 106.86) rotate(-20.08)" font-size="82.04" font-family="Sora-Medium, Sora" font-weight="500">S</text><text transform="matrix(0.97, -0.26, 0.26, 0.97, 373.74, 88.68)" font-size="82.04" font-family="Sora-Medium, Sora" font-weight="500">I</text><text transform="translate(397.45 81.2) rotate(-8.73)" font-size="82.04" font-family="Sora-Medium, Sora" font-weight="500">G</text><text transform="translate(462.67 70.38) rotate(0.93)" font-size="82.04" font-family="Sora-Medium, Sora" font-weight="500">N</text><text transform="translate(531.37 71.33) rotate(8.03)" font-size="82.04" font-family="Sora-Medium, Sora" font-weight="500">S</text><text transform="matrix(0.98, 0.22, -0.22, 0.98, 585.47, 79.71)" font-size="82.04" font-family="Sora-Medium, Sora" font-weight="500"> </text><text transform="translate(602.27 82.1) rotate(18.51)" font-size="82.04" font-family="Sora-Medium, Sora" font-weight="500">O</text><text transform="translate(667.63 103.84) rotate(27.58)" font-size="82.04" font-family="Sora-Medium, Sora" font-weight="500">N</text><text transform="translate(728.17 136.84) rotate(33.24)" font-size="82.04" font-family="Sora-Medium, Sora" font-weight="500"> </text><text transform="translate(742.99 145.21) rotate(38.51)" font-size="82.04" font-family="Sora-Medium, Sora" font-weight="500">D</text><text transform="translate(792.08 184.39) rotate(46.3)" font-size="82.04" font-family="Sora-Medium, Sora" font-weight="500">R</text><text transform="matrix(0.62, 0.78, -0.78, 0.62, 830.9, 226.01)" font-size="82.04" font-family="Sora-Medium, Sora" font-weight="500">I</text><text transform="translate(847 245.17) rotate(56.9)" font-size="82.04" font-family="Sora-Medium, Sora" font-weight="500">B</text><text transform="translate(876.81 290.71) rotate(64.08)" font-size="82.04" font-family="Sora-Medium, Sora" font-weight="500">B</text><text transform="matrix(0.33, 0.94, -0.94, 0.33, 900.44, 339.85)" font-size="82.04" font-family="Sora-Medium, Sora" font-weight="500">L</text><text transform="translate(915.12 380.91) rotate(76.62)" font-size="82.04" font-family="Sora-Medium, Sora" font-weight="500">E</text><text transform="translate(925.77 587.97) rotate(104.51)" font-size="82.04" font-family="Sora-Medium, Sora" font-weight="500">S</text><text transform="matrix(-0.36, 0.93, -0.93, -0.36, 912.06, 640.52)" font-size="82.04" font-family="Sora-Medium, Sora" font-weight="500">E</text><text transform="translate(894.9 684.88) rotate(117.55)" font-size="82.04" font-family="Sora-Medium, Sora" font-weight="500">E</text><text transform="translate(872.23 727.17) rotate(121.84)" font-size="82.04" font-family="Sora-Medium, Sora" font-weight="500"> </text><text transform="matrix(-0.61, 0.79, -0.79, -0.61, 864.72, 742.34)" font-size="82.04" font-family="Sora-Medium, Sora" font-weight="500">M</text><text transform="matrix(-0.72, 0.69, -0.69, -0.72, 818.18, 801)" font-size="82.04" font-family="Sora-Medium, Sora" font-weight="500">Y</text><text transform="matrix(-0.77, 0.63, -0.63, -0.77, 779.84, 836.88)" font-size="82.04" font-family="Sora-Medium, Sora" font-weight="500"> </text><text transform="translate(767.4 848.5) rotate(146)" font-size="82.04" font-family="Sora-Medium, Sora" font-weight="500">D</text><text transform="matrix(-0.89, 0.45, -0.45, -0.89, 715.05, 883.36)" font-size="82.04" font-family="Sora-Medium, Sora" font-weight="500">E</text><text transform="translate(673.3 904.76) rotate(159.92)" font-size="82.04" font-family="Sora-Medium, Sora" font-weight="500">S</text><text transform="matrix(-0.97, 0.26, -0.26, -0.97, 621.76, 922.93)" font-size="82.04" font-family="Sora-Medium, Sora" font-weight="500">I</text><text transform="translate(598.04 930.42) rotate(171.27)" font-size="82.04" font-family="Sora-Medium, Sora" font-weight="500">G</text><text transform="translate(532.82 941.23) rotate(-179.07)" font-size="82.04" font-family="Sora-Medium, Sora" font-weight="500">N</text><text transform="translate(464.12 940.28) rotate(-171.97)" font-size="82.04" font-family="Sora-Medium, Sora" font-weight="500">S</text><text transform="translate(410.02 931.91) rotate(-167.22)" font-size="82.04" font-family="Sora-Medium, Sora" font-weight="500"> </text><text transform="matrix(-0.95, -0.32, 0.32, -0.95, 393.22, 929.52)" font-size="82.04" font-family="Sora-Medium, Sora" font-weight="500">O</text><text transform="translate(327.87 907.78) rotate(-152.42)" font-size="82.04" font-family="Sora-Medium, Sora" font-weight="500">N</text><text transform="matrix(-0.84, -0.55, 0.55, -0.84, 267.32, 874.78)" font-size="82.04" font-family="Sora-Medium, Sora" font-weight="500"> </text><text transform="matrix(-0.78, -0.62, 0.62, -0.78, 252.48, 866.4)" font-size="82.04" font-family="Sora-Medium, Sora" font-weight="500">D</text><text transform="translate(203.41 827.23) rotate(-133.7)" font-size="82.04" font-family="Sora-Medium, Sora" font-weight="500">R</text><text transform="matrix(-0.62, -0.78, 0.78, -0.62, 164.59, 785.6)" font-size="82.04" font-family="Sora-Medium, Sora" font-weight="500">I</text><text transform="matrix(-0.55, -0.84, 0.84, -0.55, 148.5, 766.44)" font-size="82.04" font-family="Sora-Medium, Sora" font-weight="500">B</text><text transform="translate(118.69 720.92) rotate(-115.93)" font-size="82.04" font-family="Sora-Medium, Sora" font-weight="500">B</text><text transform="matrix(-0.33, -0.94, 0.94, -0.33, 95.05, 671.77)" font-size="82.04" font-family="Sora-Medium, Sora" font-weight="500">L</text><text transform="matrix(-0.23, -0.97, 0.97, -0.23, 80.37, 630.71)" font-size="82.04" font-family="Sora-Medium, Sora" font-weight="500">E</text><circle cx="35.63" cy="500.62" r="12.95"/><circle cx="960.96" cy="500.62" r="12.95"/><path d="M400.15,675.08a8.21,8.21,0,0,1-5.8-14l263.3-263.29a8.2,8.2,0,1,1,11.6,11.6L406,672.67A8.15,8.15,0,0,1,400.15,675.08Z" transform="translate(-42.41 -34.45)"/><path d="M666.33,669.75" transform="translate(-42.41 -34.45)" fill="none" stroke="#000" stroke-linecap="round" stroke-linejoin="round" stroke-width="8"/><path d="M666.33,678a8.2,8.2,0,0,1-8.2-8.2V408.58H398.69a8.21,8.21,0,1,1,0-16.41H666.33a8.21,8.21,0,0,1,8.2,8.21V669.75A8.2,8.2,0,0,1,666.33,678Z" transform="translate(-42.41 -34.45)"/></svg>